<mxfile host="drawio-plugin" modified="2024-08-04T21:13:28.651Z" agent="Mozilla/5.0 (Windows NT 10.0; Win64; x64) AppleWebKit/537.36 (KHTML, like Gecko) Chrome/122.0.0.0 Safari/537.36" etag="fKFFbeF09xWPDyterWwt" version="22.1.22" type="embed">
  <diagram id="EUNj880BrhCWBs-la3PF" name="Page-1">
    <mxGraphModel dx="1517" dy="369" grid="1" gridSize="10" guides="1" tooltips="1" connect="1" arrows="1" fold="1" page="1" pageScale="1" pageWidth="850" pageHeight="1100" math="0" shadow="0">
      <root>
        <mxCell id="0" />
        <mxCell id="1" parent="0" />
        <mxCell id="5" value="" style="rounded=0;whiteSpace=wrap;html=1;strokeColor=#97D077;fillColor=none;" parent="1" vertex="1">
          <mxGeometry x="120" y="750" width="730" height="220" as="geometry" />
        </mxCell>
        <mxCell id="8" value="Controller" style="rounded=1;whiteSpace=wrap;html=1;strokeColor=#9673a6;fillColor=#BD93F9;dashed=1;" parent="1" vertex="1">
          <mxGeometry x="731.25" y="840" width="100" height="50" as="geometry" />
        </mxCell>
        <mxCell id="9" value="ValidationComposite" style="rounded=1;whiteSpace=wrap;html=1;strokeColor=#8BE9FD;fillColor=#8BE9FD;" parent="1" vertex="1">
          <mxGeometry x="721.25" y="910" width="120" height="50" as="geometry" />
        </mxCell>
        <mxCell id="188" value="" style="edgeStyle=orthogonalEdgeStyle;rounded=0;orthogonalLoop=1;jettySize=auto;html=1;exitX=0;exitY=0.25;exitDx=0;exitDy=0;" parent="1" source="11" target="145" edge="1">
          <mxGeometry relative="1" as="geometry" />
        </mxCell>
        <mxCell id="192" value="" style="edgeStyle=orthogonalEdgeStyle;rounded=0;orthogonalLoop=1;jettySize=auto;html=1;entryX=1;entryY=0.5;entryDx=0;entryDy=0;exitX=0;exitY=0.75;exitDx=0;exitDy=0;" parent="1" source="11" target="143" edge="1">
          <mxGeometry relative="1" as="geometry" />
        </mxCell>
        <mxCell id="193" value="" style="edgeStyle=orthogonalEdgeStyle;rounded=0;orthogonalLoop=1;jettySize=auto;html=1;entryX=0.5;entryY=0;entryDx=0;entryDy=0;" parent="1" source="11" target="141" edge="1">
          <mxGeometry relative="1" as="geometry" />
        </mxCell>
        <mxCell id="196" value="" style="edgeStyle=orthogonalEdgeStyle;rounded=0;orthogonalLoop=1;jettySize=auto;html=1;entryX=0;entryY=0.5;entryDx=0;entryDy=0;exitX=1;exitY=0.75;exitDx=0;exitDy=0;" parent="1" source="11" target="144" edge="1">
          <mxGeometry relative="1" as="geometry">
            <mxPoint x="524.3800000000001" y="795" as="targetPoint" />
          </mxGeometry>
        </mxCell>
        <mxCell id="198" value="" style="edgeStyle=orthogonalEdgeStyle;rounded=0;orthogonalLoop=1;jettySize=auto;html=1;entryX=0.5;entryY=0;entryDx=0;entryDy=0;exitX=1;exitY=0.25;exitDx=0;exitDy=0;" parent="1" source="11" target="8" edge="1">
          <mxGeometry relative="1" as="geometry">
            <mxPoint x="524.3800000000001" y="795" as="targetPoint" />
          </mxGeometry>
        </mxCell>
        <mxCell id="200" value="" style="edgeStyle=orthogonalEdgeStyle;rounded=0;orthogonalLoop=1;jettySize=auto;html=1;entryX=0.5;entryY=0;entryDx=0;entryDy=0;" parent="1" source="11" target="142" edge="1">
          <mxGeometry relative="1" as="geometry">
            <mxPoint x="524.3800000000001" y="795" as="targetPoint" />
          </mxGeometry>
        </mxCell>
        <mxCell id="202" value="" style="edgeStyle=orthogonalEdgeStyle;rounded=0;orthogonalLoop=1;jettySize=auto;html=1;entryX=0;entryY=0.5;entryDx=0;entryDy=0;exitX=0.25;exitY=0;exitDx=0;exitDy=0;" parent="1" source="11" target="211" edge="1">
          <mxGeometry relative="1" as="geometry" />
        </mxCell>
        <mxCell id="212" value="" style="edgeStyle=orthogonalEdgeStyle;rounded=0;orthogonalLoop=1;jettySize=auto;html=1;entryX=0.5;entryY=1;entryDx=0;entryDy=0;exitX=0.5;exitY=0;exitDx=0;exitDy=0;" parent="1" source="11" target="81" edge="1">
          <mxGeometry relative="1" as="geometry" />
        </mxCell>
        <mxCell id="217" value="" style="edgeStyle=orthogonalEdgeStyle;rounded=0;orthogonalLoop=1;jettySize=auto;html=1;entryX=0;entryY=0.5;entryDx=0;entryDy=0;exitX=0.25;exitY=0;exitDx=0;exitDy=0;" parent="1" source="11" target="213" edge="1">
          <mxGeometry relative="1" as="geometry" />
        </mxCell>
        <mxCell id="219" value="" style="edgeStyle=orthogonalEdgeStyle;rounded=0;orthogonalLoop=1;jettySize=auto;html=1;entryX=0;entryY=0.75;entryDx=0;entryDy=0;exitX=0.25;exitY=0;exitDx=0;exitDy=0;" parent="1" source="11" target="218" edge="1">
          <mxGeometry relative="1" as="geometry" />
        </mxCell>
        <mxCell id="11" value="SignupController" style="rounded=1;whiteSpace=wrap;html=1;strokeColor=#8BE9FD;fillColor=#8BE9FD;" parent="1" vertex="1">
          <mxGeometry x="330" y="770" width="115" height="50" as="geometry" />
        </mxCell>
        <mxCell id="57" value="&lt;span style=&quot;font-size: 15px;&quot;&gt;&lt;b&gt;APPLICATION&lt;br&gt;&lt;/b&gt;&lt;/span&gt;" style="text;html=1;align=center;verticalAlign=middle;resizable=0;points=[];autosize=1;strokeColor=none;fillColor=none;" parent="1" vertex="1">
          <mxGeometry x="730" y="750" width="120" height="30" as="geometry" />
        </mxCell>
        <mxCell id="58" value="" style="rounded=0;whiteSpace=wrap;html=1;strokeColor=#97D077;fillColor=none;" parent="1" vertex="1">
          <mxGeometry x="120" y="530" width="730" height="185" as="geometry" />
        </mxCell>
        <mxCell id="73" value="&lt;span style=&quot;font-size: 15px;&quot;&gt;&lt;b&gt;DOMAIN&lt;/b&gt;&lt;/span&gt;" style="text;html=1;align=center;verticalAlign=middle;resizable=0;points=[];autosize=1;strokeColor=none;fillColor=none;" parent="1" vertex="1">
          <mxGeometry x="770" y="530" width="80" height="30" as="geometry" />
        </mxCell>
        <mxCell id="79" value="ConflictException" style="rounded=1;whiteSpace=wrap;html=1;strokeColor=#d6b656;fillColor=#FF79C6;" parent="1" vertex="1">
          <mxGeometry x="596.88" y="650" width="122.5" height="50" as="geometry" />
        </mxCell>
        <mxCell id="204" value="" style="edgeStyle=orthogonalEdgeStyle;rounded=0;orthogonalLoop=1;jettySize=auto;html=1;entryX=0.5;entryY=1;entryDx=0;entryDy=0;" parent="1" source="81" target="104" edge="1">
          <mxGeometry relative="1" as="geometry">
            <mxPoint x="246.8800000000001" y="675" as="targetPoint" />
          </mxGeometry>
        </mxCell>
        <mxCell id="205" value="" style="edgeStyle=orthogonalEdgeStyle;rounded=0;orthogonalLoop=1;jettySize=auto;html=1;exitX=1;exitY=0.5;exitDx=0;exitDy=0;" parent="1" source="81" target="79" edge="1">
          <mxGeometry relative="1" as="geometry">
            <mxPoint x="450" y="690" as="sourcePoint" />
          </mxGeometry>
        </mxCell>
        <mxCell id="206" value="" style="edgeStyle=orthogonalEdgeStyle;rounded=0;orthogonalLoop=1;jettySize=auto;html=1;entryX=0;entryY=0.5;entryDx=0;entryDy=0;" parent="1" source="81" target="177" edge="1">
          <mxGeometry relative="1" as="geometry" />
        </mxCell>
        <mxCell id="81" value="Signup" style="rounded=1;whiteSpace=wrap;html=1;strokeColor=#8BE9FD;fillColor=#8BE9FD;" parent="1" vertex="1">
          <mxGeometry x="326.88" y="650" width="120" height="50" as="geometry" />
        </mxCell>
        <mxCell id="93" value="" style="rounded=0;whiteSpace=wrap;html=1;strokeColor=none;strokeWidth=3;fillColor=#FF79C6;fontSize=13;fontColor=#F8F8F2;align=right;" parent="1" vertex="1">
          <mxGeometry x="-51" y="209" width="20" height="20" as="geometry" />
        </mxCell>
        <mxCell id="94" value="&lt;font color=&quot;#000000&quot;&gt;Entities&lt;/font&gt;" style="text;html=1;resizable=0;points=[];autosize=1;align=left;verticalAlign=middle;spacingTop=-4;fontSize=13;fontColor=#F8F8F2;" parent="1" vertex="1">
          <mxGeometry x="-29" y="209" width="70" height="20" as="geometry" />
        </mxCell>
        <mxCell id="95" value="" style="rounded=0;whiteSpace=wrap;html=1;strokeColor=none;strokeWidth=3;fillColor=#BD93F9;fontSize=13;fontColor=#F8F8F2;align=right;" parent="1" vertex="1">
          <mxGeometry x="-51" y="238" width="20" height="20" as="geometry" />
        </mxCell>
        <mxCell id="96" value="&lt;font color=&quot;#000000&quot;&gt;Abstraction&lt;/font&gt;" style="text;html=1;resizable=0;points=[];autosize=1;align=left;verticalAlign=middle;spacingTop=-4;fontSize=13;fontColor=#F8F8F2;" parent="1" vertex="1">
          <mxGeometry x="-29" y="238" width="90" height="20" as="geometry" />
        </mxCell>
        <mxCell id="97" value="" style="rounded=0;whiteSpace=wrap;html=1;strokeColor=none;strokeWidth=3;fillColor=#8BE9FD;fontSize=13;fontColor=#F8F8F2;align=right;" parent="1" vertex="1">
          <mxGeometry x="-51" y="269" width="20" height="20" as="geometry" />
        </mxCell>
        <mxCell id="98" value="&lt;font color=&quot;#000000&quot;&gt;Implementation&lt;/font&gt;" style="text;html=1;resizable=0;points=[];autosize=1;align=left;verticalAlign=middle;spacingTop=-4;fontSize=13;fontColor=#F8F8F2;" parent="1" vertex="1">
          <mxGeometry x="-29" y="269" width="110" height="20" as="geometry" />
        </mxCell>
        <mxCell id="99" value="" style="rounded=0;whiteSpace=wrap;html=1;strokeColor=none;strokeWidth=3;fillColor=#50FA7B;fontSize=13;fontColor=#F8F8F2;align=right;" parent="1" vertex="1">
          <mxGeometry x="-51" y="180" width="20" height="20" as="geometry" />
        </mxCell>
        <mxCell id="100" value="&lt;font color=&quot;#000000&quot;&gt;Layer&lt;/font&gt;" style="text;html=1;resizable=0;points=[];autosize=1;align=left;verticalAlign=middle;spacingTop=-4;fontSize=13;fontColor=#F8F8F2;strokeColor=none;" parent="1" vertex="1">
          <mxGeometry x="-29" y="180" width="60" height="20" as="geometry" />
        </mxCell>
        <mxCell id="101" value="" style="rounded=0;whiteSpace=wrap;html=1;strokeColor=none;strokeWidth=3;fillColor=#FF5555;fontSize=13;fontColor=#F8F8F2;align=right;" parent="1" vertex="1">
          <mxGeometry x="-51" y="300" width="20" height="20" as="geometry" />
        </mxCell>
        <mxCell id="102" value="&lt;font color=&quot;#000000&quot;&gt;External Lib&lt;/font&gt;" style="text;html=1;resizable=0;points=[];autosize=1;align=left;verticalAlign=middle;spacingTop=-4;fontSize=13;fontColor=#F8F8F2;" parent="1" vertex="1">
          <mxGeometry x="-29" y="300" width="90" height="20" as="geometry" />
        </mxCell>
        <mxCell id="208" value="" style="edgeStyle=orthogonalEdgeStyle;rounded=0;orthogonalLoop=1;jettySize=auto;html=1;" parent="1" source="104" target="113" edge="1">
          <mxGeometry relative="1" as="geometry" />
        </mxCell>
        <mxCell id="104" value="IUserAdapter" style="rounded=1;whiteSpace=wrap;html=1;strokeColor=#9673a6;fillColor=#BD93F9;dashed=1;" parent="1" vertex="1">
          <mxGeometry x="132.5" y="560" width="150" height="50" as="geometry" />
        </mxCell>
        <mxCell id="109" value="" style="rounded=0;whiteSpace=wrap;html=1;strokeColor=#97D077;fillColor=none;" parent="1" vertex="1">
          <mxGeometry x="120" y="330" width="730" height="164" as="geometry" />
        </mxCell>
        <mxCell id="207" value="" style="edgeStyle=orthogonalEdgeStyle;rounded=0;orthogonalLoop=1;jettySize=auto;html=1;" parent="1" source="113" target="170" edge="1">
          <mxGeometry relative="1" as="geometry" />
        </mxCell>
        <mxCell id="209" value="" style="edgeStyle=orthogonalEdgeStyle;rounded=0;orthogonalLoop=1;jettySize=auto;html=1;" parent="1" source="113" target="116" edge="1">
          <mxGeometry relative="1" as="geometry" />
        </mxCell>
        <mxCell id="113" value="UserAdapter" style="rounded=1;whiteSpace=wrap;html=1;strokeColor=#8BE9FD;fillColor=#8BE9FD;" parent="1" vertex="1">
          <mxGeometry x="132.5" y="430" width="150" height="50" as="geometry" />
        </mxCell>
        <mxCell id="115" value="&lt;b style=&quot;border-color: var(--border-color);&quot;&gt;&lt;font style=&quot;border-color: var(--border-color); font-size: 15px;&quot;&gt;INFRA&lt;br&gt;&lt;/font&gt;&lt;/b&gt;" style="text;html=1;align=center;verticalAlign=middle;resizable=0;points=[];autosize=1;strokeColor=none;fillColor=none;" parent="1" vertex="1">
          <mxGeometry x="780" y="330" width="70" height="30" as="geometry" />
        </mxCell>
        <mxCell id="116" value="UserEntityMapper" style="rounded=1;whiteSpace=wrap;html=1;strokeColor=#8BE9FD;fillColor=#8BE9FD;" parent="1" vertex="1">
          <mxGeometry x="132.5" y="360" width="150" height="50" as="geometry" />
        </mxCell>
        <mxCell id="194" value="" style="edgeStyle=orthogonalEdgeStyle;rounded=0;orthogonalLoop=1;jettySize=auto;html=1;" parent="1" source="141" target="172" edge="1">
          <mxGeometry relative="1" as="geometry" />
        </mxCell>
        <mxCell id="141" value="ValidationBuilder" style="rounded=1;whiteSpace=wrap;html=1;strokeColor=#8BE9FD;fillColor=#8BE9FD;" parent="1" vertex="1">
          <mxGeometry x="330" y="840" width="113.75" height="50" as="geometry" />
        </mxCell>
        <mxCell id="142" value="RequiredFieldValidator" style="rounded=1;whiteSpace=wrap;html=1;strokeColor=#8BE9FD;fillColor=#8BE9FD;" parent="1" vertex="1">
          <mxGeometry x="490" y="850" width="152.5" height="50" as="geometry" />
        </mxCell>
        <mxCell id="143" value="UsernameFieldValidator" style="rounded=1;whiteSpace=wrap;html=1;strokeColor=#8BE9FD;fillColor=#8BE9FD;" parent="1" vertex="1">
          <mxGeometry x="130" y="840" width="150" height="50" as="geometry" />
        </mxCell>
        <mxCell id="144" value="EmailFieldValidator" style="rounded=1;whiteSpace=wrap;html=1;strokeColor=#8BE9FD;fillColor=#8BE9FD;" parent="1" vertex="1">
          <mxGeometry x="490" y="910" width="152.5" height="50" as="geometry" />
        </mxCell>
        <mxCell id="145" value="PasswordFieldValidator" style="rounded=1;whiteSpace=wrap;html=1;strokeColor=#8BE9FD;fillColor=#8BE9FD;" parent="1" vertex="1">
          <mxGeometry x="130" y="770" width="152.5" height="50" as="geometry" />
        </mxCell>
        <mxCell id="161" value="" style="endArrow=classic;html=1;rounded=0;exitX=0.5;exitY=1;exitDx=0;exitDy=0;entryX=0.5;entryY=0;entryDx=0;entryDy=0;fillColor=#dae8fc;strokeColor=#6c8ebf;" parent="1" source="8" target="9" edge="1">
          <mxGeometry width="50" height="50" relative="1" as="geometry">
            <mxPoint x="638.75" y="950" as="sourcePoint" />
            <mxPoint x="688.75" y="900" as="targetPoint" />
          </mxGeometry>
        </mxCell>
        <mxCell id="170" value="JPARepository" style="rounded=1;whiteSpace=wrap;html=1;strokeColor=#8BE9FD;fillColor=#FF5555;" parent="1" vertex="1">
          <mxGeometry x="-70" y="430" width="150" height="50" as="geometry" />
        </mxCell>
        <mxCell id="172" value="UserDTOMapper" style="rounded=1;whiteSpace=wrap;html=1;strokeColor=#8BE9FD;fillColor=#8BE9FD;" parent="1" vertex="1">
          <mxGeometry x="326.88" y="910" width="120" height="50" as="geometry" />
        </mxCell>
        <mxCell id="210" value="" style="edgeStyle=orthogonalEdgeStyle;rounded=0;orthogonalLoop=1;jettySize=auto;html=1;" parent="1" source="177" target="180" edge="1">
          <mxGeometry relative="1" as="geometry" />
        </mxCell>
        <mxCell id="177" value="ICryptoAdapter" style="rounded=1;whiteSpace=wrap;html=1;strokeColor=#9673a6;fillColor=#BD93F9;dashed=1;" parent="1" vertex="1">
          <mxGeometry x="446.88" y="560" width="150" height="50" as="geometry" />
        </mxCell>
        <mxCell id="184" value="" style="edgeStyle=orthogonalEdgeStyle;rounded=0;orthogonalLoop=1;jettySize=auto;html=1;" parent="1" source="180" target="182" edge="1">
          <mxGeometry relative="1" as="geometry" />
        </mxCell>
        <mxCell id="180" value="CryptoAdapter" style="rounded=1;whiteSpace=wrap;html=1;strokeColor=#8BE9FD;fillColor=#8BE9FD;" parent="1" vertex="1">
          <mxGeometry x="446.88" y="430" width="150" height="50" as="geometry" />
        </mxCell>
        <mxCell id="182" value="PasswordEncoder" style="rounded=1;whiteSpace=wrap;html=1;strokeColor=#8BE9FD;fillColor=#FF5555;" parent="1" vertex="1">
          <mxGeometry x="446.88" y="260" width="150" height="50" as="geometry" />
        </mxCell>
        <mxCell id="211" value="Sentry" style="rounded=1;whiteSpace=wrap;html=1;strokeColor=#8BE9FD;fillColor=#FF5555;" parent="1" vertex="1">
          <mxGeometry x="-74" y="770" width="150" height="50" as="geometry" />
        </mxCell>
        <mxCell id="213" value="Swagger" style="rounded=1;whiteSpace=wrap;html=1;strokeColor=#8BE9FD;fillColor=#FF5555;" parent="1" vertex="1">
          <mxGeometry x="-74" y="830" width="150" height="50" as="geometry" />
        </mxCell>
        <mxCell id="218" value="springframework" style="rounded=1;whiteSpace=wrap;html=1;strokeColor=#8BE9FD;fillColor=#FF5555;" parent="1" vertex="1">
          <mxGeometry x="-74" y="890" width="150" height="50" as="geometry" />
        </mxCell>
      </root>
    </mxGraphModel>
  </diagram>
</mxfile>
